<svg width="56" height="56" viewBox="0 0 56 56" fill="none" xmlns="http://www.w3.org/2000/svg">
<g filter="url(#filter0_d_2_172)">
<g clip-path="url(#clip0_2_172)">
<g clip-path="url(#clip1_2_172)">
<mask id="mask0_2_172" style="mask-type:luminance" maskUnits="userSpaceOnUse" x="2" y="2" width="40" height="40">
<path d="M42 2H2V42H42V2Z" fill="white"/>
</mask>
<g mask="url(#mask0_2_172)">
<path d="M3 2H2V42H3V2Z" fill="#736436"/>
<path fill-rule="evenodd" clip-rule="evenodd" d="M18.4666 18.2L21.8 21.5333C22.0666 21.8 22.0666 22.2 21.8 22.4667L18.4666 25.8C18.3333 25.9333 18.2 26 18 26C17.8 26 17.6666 25.9333 17.5333 25.8C17.2666 25.5333 17.2666 25.1333 17.5333 24.8667L20.4 22L17.5333 19.1333C17.2666 18.8667 17.2666 18.4667 17.5333 18.2C17.8 17.9333 18.2 17.9333 18.4666 18.2ZM23.1333 25.8L26.4666 22.4667C26.7333 22.2 26.7333 21.8 26.4666 21.5333L23.1333 18.2C22.8666 17.9333 22.4666 17.9333 22.2 18.2C21.9333 18.4667 21.9333 18.8667 22.2 19.1333L25.0666 22L22.2 24.8667C21.9333 25.1333 21.9333 25.5333 22.2 25.8C22.3333 25.9333 22.4666 26 22.6666 26C22.8666 26 23 25.9333 23.1333 25.8Z" fill="#FFFDFD"/>
<mask id="mask1_2_172" style="mask-type:luminance" maskUnits="userSpaceOnUse" x="17" y="18" width="10" height="8">
<path fill-rule="evenodd" clip-rule="evenodd" d="M18.4666 18.2L21.8 21.5333C22.0666 21.8 22.0666 22.2 21.8 22.4667L18.4666 25.8C18.3333 25.9333 18.2 26 18 26C17.8 26 17.6666 25.9333 17.5333 25.8C17.2666 25.5333 17.2666 25.1333 17.5333 24.8667L20.4 22L17.5333 19.1333C17.2666 18.8667 17.2666 18.4667 17.5333 18.2C17.8 17.9333 18.2 17.9333 18.4666 18.2ZM23.1333 25.8L26.4666 22.4667C26.7333 22.2 26.7333 21.8 26.4666 21.5333L23.1333 18.2C22.8666 17.9333 22.4666 17.9333 22.2 18.2C21.9333 18.4667 21.9333 18.8667 22.2 19.1333L25.0666 22L22.2 24.8667C21.9333 25.1333 21.9333 25.5333 22.2 25.8C22.3333 25.9333 22.4666 26 22.6666 26C22.8666 26 23 25.9333 23.1333 25.8Z" fill="white"/>
</mask>
<g mask="url(#mask1_2_172)">
<path fill-rule="evenodd" clip-rule="evenodd" d="M14 14H30V30H14V14Z" fill="#F4D473"/>
</g>
<path d="M42 2H41V42H42V2Z" fill="#FEFAFA" fill-opacity="0.35"/>
</g>
</g>
</g>
<rect x="2.5" y="2.5" width="39" height="39" rx="3.5" stroke="#F2C029" shape-rendering="crispEdges"/>
</g>
<defs>
<filter id="filter0_d_2_172" x="0" y="0" width="56" height="56" filterUnits="userSpaceOnUse" color-interpolation-filters="sRGB">
<feFlood flood-opacity="0" result="BackgroundImageFix"/>
<feColorMatrix in="SourceAlpha" type="matrix" values="0 0 0 0 0 0 0 0 0 0 0 0 0 0 0 0 0 0 127 0" result="hardAlpha"/>
<feOffset dx="6" dy="6"/>
<feGaussianBlur stdDeviation="4"/>
<feComposite in2="hardAlpha" operator="out"/>
<feColorMatrix type="matrix" values="0 0 0 0 0.134167 0 0 0 0 0.134167 0 0 0 0 0.134167 0 0 0 0.5 0"/>
<feBlend mode="normal" in2="BackgroundImageFix" result="effect1_dropShadow_2_172"/>
<feBlend mode="normal" in="SourceGraphic" in2="effect1_dropShadow_2_172" result="shape"/>
</filter>
<clipPath id="clip0_2_172">
<rect x="2" y="2" width="40" height="40" rx="4" fill="white"/>
</clipPath>
<clipPath id="clip1_2_172">
<rect width="40" height="40" fill="white" transform="translate(2 2)"/>
</clipPath>
</defs>
</svg>
